<svg width="88" height="20" viewBox="0 0 88 20" fill="none" xmlns="http://www.w3.org/2000/svg">
  <path fill-rule="evenodd" clip-rule="evenodd" d="M7.39878 7.27731C7.39878 8.15126 7.03625 8.92437 6.44303 9.52941C6.17153 9.80633 5.8497 9.99769 5.56507 10.1669C5.1587 10.4086 4.82815 10.6051 4.82815 10.9412C4.82815 11.3361 5.14639 11.4679 5.61369 11.6614C6.06113 11.8467 6.64523 12.0886 7.21751 12.6723C7.992 13.4622 8.46987 14.5042 8.46987 15.7143C8.46987 18.1008 6.59134 20 4.23493 20C1.87853 20 0 18.1025 0 15.716C0 14.5059 0.477872 13.4639 1.25235 12.6739C1.82463 12.0903 2.40874 11.8484 2.85618 11.6631C3.32348 11.4696 3.64171 11.3378 3.64171 10.9429C3.64171 10.6068 3.31117 10.4103 2.9048 10.1686C2.62017 9.99937 2.29834 9.80801 2.02684 9.53109C1.43362 8.92605 1.07109 8.15294 1.07109 7.24538C1.07109 5.49748 2.47175 4.08571 4.1855 4.08571C4.36211 4.08571 4.52926 4.10019 4.68441 4.11364C4.81877 4.12527 4.94414 4.13613 5.05885 4.13613C5.50377 4.13613 5.73446 3.93445 5.73446 3.61513C5.73446 3.52984 5.71693 3.43383 5.69804 3.33039C5.67598 3.20959 5.65207 3.07866 5.65207 2.94286C5.65207 2.37143 6.12994 1.90084 6.70669 1.90084C7.28343 1.90084 7.74482 2.38824 7.74482 2.97647C7.74482 3.59832 7.26695 3.88403 6.90443 4.01849C6.60782 4.11933 6.37712 4.25378 6.37712 4.5563C6.37712 4.76937 6.52 4.98032 6.6989 5.24445C6.99837 5.6866 7.39878 6.27776 7.39878 7.27731ZM7.06921 15.716C7.06921 14.0521 5.86629 12.7076 4.23493 12.7076C2.60358 12.7076 1.40066 14.0521 1.40066 15.716C1.40066 17.363 2.60358 18.7244 4.23493 18.7244C5.86629 18.7244 7.06921 17.3613 7.06921 15.716ZM4.23493 5.31093C5.25659 5.31093 6.09699 6.18487 6.09699 7.2437C6.09699 8.30252 5.25659 9.17647 4.23493 9.17647C3.21328 9.17647 2.37288 8.30252 2.37288 7.2437C2.37288 6.18487 3.21328 5.31093 4.23493 5.31093Z" fill="#15372C"/>
  <path d="M13.331 4.2521C13.8583 4.2521 14.2538 4.65546 14.2538 5.15966C14.2538 5.66387 13.8748 6.06723 13.3475 6.06723C12.8037 6.06723 12.5071 5.71429 11.9633 5.71429C11.436 5.71429 11.024 6.10084 11.024 6.7563V12.0504C11.024 12.4538 10.7109 12.7731 10.3154 12.7731C9.93644 12.7731 9.62335 12.4538 9.62335 12.0504V4.92437C9.62335 4.52101 9.93644 4.20168 10.3154 4.20168C11.024 4.20168 10.8922 4.89076 11.6008 4.89076C12.2764 4.89076 12.5235 4.2521 13.331 4.2521Z" fill="#15372C"/>
  <path fill-rule="evenodd" clip-rule="evenodd" d="M18.9336 4.11765C16.5772 4.11765 14.8635 5.94958 14.8635 8.4874C14.8635 10.9748 16.6926 12.8571 19.2467 12.8571C20.3013 12.8571 21.2735 12.5378 21.9656 11.9496C22.1304 11.7983 22.1963 11.6303 22.1963 11.4286C22.1963 11.0924 21.9162 10.7731 21.5702 10.7731C21.4054 10.7731 21.2406 10.8403 21.0923 10.958C20.6144 11.3109 19.9882 11.5798 19.2797 11.5798C18.3239 11.5798 17.6483 11.2773 17.154 10.7731C16.6596 10.2689 16.33 9.4958 16.33 9.07563C16.33 8.89076 16.4124 8.80672 16.6431 8.80672H21.9986C22.4765 8.80672 22.806 8.45378 22.806 7.93277C22.806 5.73109 21.0923 4.11765 18.9336 4.11765ZM18.9336 5.36134C19.6422 5.36134 20.2354 5.59664 20.6968 6.06723C21.0264 6.40336 21.3395 6.95798 21.3395 7.36134C21.3395 7.52941 21.2406 7.59664 21.0428 7.59664H16.7585C16.5443 7.59664 16.4454 7.52941 16.4454 7.36134C16.4454 7.02521 16.709 6.52101 17.088 6.13445C17.5659 5.64706 18.225 5.36134 18.9336 5.36134Z" fill="#15372C"/>
  <path fill-rule="evenodd" clip-rule="evenodd" d="M28.2933 4.11765C25.9369 4.11765 24.2232 5.94958 24.2232 8.4874C24.2232 10.9748 26.0523 12.8571 28.6064 12.8571C29.661 12.8571 30.6332 12.5378 31.3253 11.9496C31.4901 11.7983 31.556 11.6303 31.556 11.4286C31.556 11.0924 31.2759 10.7731 30.9298 10.7731C30.7651 10.7731 30.6003 10.8403 30.452 10.958C29.9741 11.3109 29.3479 11.5798 28.6394 11.5798C27.6836 11.5798 27.008 11.2773 26.5137 10.7731C26.0193 10.2689 25.6897 9.4958 25.6897 9.07563C25.6897 8.89076 25.7721 8.80672 26.0028 8.80672H31.3583C31.8362 8.80672 32.1657 8.45378 32.1657 7.93277C32.1657 5.73109 30.452 4.11765 28.2933 4.11765ZM28.2933 5.36134C29.0019 5.36134 29.5951 5.59664 30.0565 6.06723C30.3861 6.40336 30.6992 6.95798 30.6992 7.36134C30.6992 7.52941 30.6003 7.59664 30.4025 7.59664H26.1182C25.904 7.59664 25.8051 7.52941 25.8051 7.36134C25.8051 7.02521 26.0687 6.52101 26.4477 6.13445C26.9256 5.64706 27.5847 5.36134 28.2933 5.36134Z" fill="#15372C"/>
  <path d="M40.4214 12.7731C40.0259 12.7731 39.7128 12.4538 39.7128 12.0504V7.47899C39.7128 6.28571 38.79 5.37815 37.6036 5.37815C36.4007 5.37815 35.4779 6.30252 35.4779 7.47899V12.0504C35.4779 12.4538 35.1648 12.7731 34.7693 12.7731C34.3903 12.7731 34.0772 12.4538 34.0772 12.0504V4.90756C34.0772 4.52101 34.3903 4.20168 34.7528 4.20168C35.4449 4.20168 35.412 4.84034 35.7745 4.84034C36.137 4.84034 36.6314 4.11765 37.9167 4.11765C39.7128 4.11765 41.1135 5.64706 41.1135 7.47899V12.0504C41.1135 12.4538 40.8004 12.7731 40.4214 12.7731Z" fill="#15372C"/>
  <path d="M49.8799 12.7731C49.4845 12.7731 49.1714 12.4538 49.1714 12.0504V7.47899C49.1714 6.28571 48.2486 5.37815 47.0621 5.37815C45.8592 5.37815 44.9364 6.30252 44.9364 7.47899V12.0504C44.9364 12.4538 44.6234 12.7731 44.2279 12.7731C43.8489 12.7731 43.5358 12.4538 43.5358 12.0504V0.722689C43.5358 0.319328 43.8489 0 44.2279 0C44.6234 0 44.9364 0.319328 44.9364 0.722689V4.43698C44.9364 4.63866 45.0188 4.7563 45.2331 4.7563C45.5956 4.7563 46.0899 4.11765 47.3752 4.11765C49.1714 4.11765 50.572 5.64706 50.572 7.47899V12.0504C50.572 12.4538 50.2589 12.7731 49.8799 12.7731Z" fill="#15372C"/>
  <path fill-rule="evenodd" clip-rule="evenodd" d="M56.8157 4.11765C54.4098 4.11765 52.4984 6.05042 52.4984 8.4874C52.4984 10.9244 54.4115 12.8571 56.8157 12.8571C59.2215 12.8571 61.133 10.9244 61.133 8.4874C61.133 6.05042 59.2215 4.11765 56.8157 4.11765ZM56.8173 5.39496C58.4981 5.39496 59.734 6.78992 59.734 8.4874C59.734 10.1849 58.4981 11.5798 56.8173 11.5798C55.153 11.5798 53.9171 10.1849 53.9171 8.4874C53.9171 6.78992 55.153 5.39496 56.8173 5.39496Z" fill="#15372C"/>
  <path d="M63.7531 4.20168C64.1485 4.20168 64.4616 4.52101 64.4616 4.92437V9.4958C64.4616 10.6891 65.3844 11.5966 66.5709 11.5966C67.7738 11.5966 68.6966 10.6723 68.6966 9.4958V4.92437C68.6966 4.52101 69.0097 4.20168 69.4051 4.20168C69.7841 4.20168 70.0972 4.52101 70.0972 4.92437V12.0672C70.0972 12.4538 69.7841 12.7731 69.4216 12.7731C68.7295 12.7731 68.7625 12.1345 68.4 12.1345C68.0374 12.1345 67.5431 12.8571 66.2578 12.8571C64.4616 12.8571 63.061 11.3277 63.061 9.4958V4.92437C63.0626 4.52101 63.3741 4.20168 63.7531 4.20168Z" fill="#15372C"/>
  <path d="M72.5855 12.2353C72.2724 12.0336 72.0582 11.8319 72.0582 11.4454C72.0582 11.0756 72.3383 10.7899 72.6843 10.7899C73.0963 10.7899 73.2775 11.042 73.6236 11.2269C74.052 11.479 74.5464 11.6134 75.1561 11.6134C76.2766 11.6134 76.8369 11.0924 76.8369 10.4538C76.8369 9.54622 76.013 9.37815 74.8924 9.07563C73.5082 8.70588 72.1735 8.28571 72.1735 6.65546C72.1735 5.21008 73.2611 4.11765 75.189 4.11765C75.947 4.11765 76.6556 4.31933 77.2159 4.67227C77.4136 4.78992 77.6114 5.04202 77.6114 5.32773C77.6114 5.69748 77.3147 6.01681 76.9357 6.01681C76.6886 6.01681 76.4908 5.84874 76.2436 5.68067C75.9965 5.51261 75.6339 5.36134 75.1396 5.36134C74.0356 5.36134 73.5577 5.84874 73.5577 6.5042C73.5577 7.36134 74.3651 7.56303 75.5186 7.84874C76.8698 8.18487 78.2046 8.62185 78.2046 10.2857C78.2046 11.7311 77.15 12.8571 75.1231 12.8571C74.1344 12.8571 73.2446 12.6555 72.5855 12.2353Z" fill="#15372C"/>
  <path fill-rule="evenodd" clip-rule="evenodd" d="M83.593 4.11765C81.2366 4.11765 79.5228 5.94958 79.5228 8.4874C79.5228 10.9748 81.3536 12.8571 83.9061 12.8571C84.9607 12.8571 85.9329 12.5378 86.625 11.9496C86.7898 11.7983 86.8557 11.6303 86.8557 11.4286C86.8557 11.0924 86.5756 10.7731 86.2295 10.7731C86.0647 10.7731 85.9 10.8403 85.7517 10.958C85.2738 11.3109 84.6476 11.5798 83.939 11.5798C82.9833 11.5798 82.3077 11.2773 81.8133 10.7731C81.319 10.2689 80.9894 9.4958 80.9894 9.07563C80.9894 8.89076 81.0718 8.80672 81.3025 8.80672H86.658C87.1358 8.80672 87.4654 8.45378 87.4654 7.93277C87.4654 5.73109 85.7517 4.11765 83.593 4.11765ZM83.5946 5.36134C84.3032 5.36134 84.8964 5.59664 85.3578 6.06723C85.6874 6.40336 86.0005 6.95798 86.0005 7.36134C86.0005 7.52941 85.9016 7.59664 85.7039 7.59664H81.4195C81.2053 7.59664 81.1064 7.52941 81.1064 7.36134C81.1064 7.02521 81.3701 6.52101 81.7491 6.13445C82.2269 5.64706 82.8861 5.36134 83.5946 5.36134Z" fill="#15372C"/>
</svg>
